<svg width="991.014160" height="806.917297" viewBox="0 0 991.014 806.917" fill="none" xmlns="http://www.w3.org/2000/svg" xmlns:xlink="http://www.w3.org/1999/xlink">
	<desc>
			Created with Pixso.
	</desc>
	<defs>
		<filter id="filter_4_5_dd" x="629.014160" y="55.994568" width="362.000000" height="366.000000" filterUnits="userSpaceOnUse" color-interpolation-filters="sRGB">
			<feFlood flood-opacity="0" result="BackgroundImageFix"/>
			<feBlend mode="normal" in="SourceGraphic" in2="BackgroundImageFix" result="shape"/>
			<feGaussianBlur stdDeviation="16.6667" result="effect_layerBlur_1"/>
		</filter>
	</defs>
	<rect id="Component 1" width="981.307556" height="806.917297" fill="#FFFFFF" fill-opacity="0"/>
	<path id="Subtract" d="M899.014 403.495C899.014 510.973 856.869 608.713 788.223 681.07C714.339 759.134 616.502 801.054 516.902 806.321C409.575 812.124 309.738 775.219 233.844 710.505C151.973 640.863 104.926 545.386 94.3875 446.204C82.9036 339.336 114.465 237.684 175.065 158.465C240.27 73.0188 333.119 20.977 431.602 5.1958C537.712 -11.9368 640.894 14.1919 723.277 70.4238L703.361 99.5493C622.4 44.1862 527.066 25.5862 437.201 40.0235C340.339 55.4667 258.366 107.571 203.093 179.884C143.437 257.741 119.81 351.955 129.463 442.46C139.75 540.004 187.436 624.624 256.718 683.652C263.158 689.152 269.735 694.391 276.434 699.368C312.719 729.577 355.421 753.342 403.338 768.327C491.482 796.007 590.117 791.404 679.823 747.777C763.115 707.391 838.084 620.971 873.244 527.943C888.249 488.384 896.62 446.291 897.567 403.495L899.014 403.495Z" clip-rule="evenodd" fill="#FFFFFF" fill-opacity="1.000000" fill-rule="evenodd"/>
	<g filter="url(#filter_4_5_dd)">
		<ellipse id="Oval 2" cx="810.014160" cy="238.994568" rx="131.000000" ry="133.000000" fill="#FFCF0B" fill-opacity="1.000000"/>
	</g>
	<path id="Subtract" d="M0.497803 764.349C8.36118 747.794 18.7548 727.26 31.6786 702.746C57.5244 653.722 83.1283 609.254 108.49 569.343C190.468 440.336 255.427 381.635 303.368 393.239C303.509 393.273 303.65 393.308 303.79 393.343C307.971 394.393 313.54 397.283 320.498 402.014C324.492 404.728 330.955 409.52 339.887 416.389C352.201 425.859 361.18 432.337 366.823 435.823C377.77 442.584 387.708 446.047 396.638 446.214C400.777 446.291 404.59 445.595 408.078 444.125C414.059 441.606 419.082 436.812 423.147 429.745C426.697 423.574 431.42 414.074 437.317 401.246C445.357 383.758 451.958 371.569 457.12 364.677C464.067 355.404 472.127 348.966 481.3 345.364L481.303 345.363C483.875 344.353 486.536 343.566 489.283 343.002C496.556 341.509 503.414 341.604 509.857 343.288C512.993 344.107 516.031 345.303 518.971 346.876C524.128 349.634 530.707 354.989 538.707 362.941C546.537 370.724 552.688 375.544 557.16 377.401C557.67 377.613 558.186 377.806 558.708 377.979C565.43 380.216 573.195 379.317 582.003 375.282C585.333 373.757 588.308 371.832 590.93 369.508C592.809 367.842 594.506 365.97 596.021 363.894C598.362 360.684 601.362 355.051 605.02 346.996C610.586 334.736 615.996 325.276 621.248 318.614C631.783 305.252 643.015 297.875 654.946 296.483L654.947 296.483C657.373 296.2 659.828 296.165 662.312 296.377C667.143 296.789 672.502 298.484 678.389 301.462C681.72 303.147 686.615 306.069 693.075 310.23C698.266 313.573 702.1 315.914 704.576 317.252C716.775 323.846 735.581 326.462 760.993 325.101C783.691 323.886 805.252 320.082 825.676 313.69C852.105 305.42 885.798 283.649 926.756 248.377C947.372 230.624 965.314 213.695 980.583 197.59L981.308 198.276C965.534 215.897 946.968 234.364 925.607 253.679C882.707 292.471 847.203 316.16 819.093 324.745C802.389 329.847 784.763 333.199 766.213 334.8C764.656 334.907 763.095 335.003 761.528 335.087C734.241 336.548 713.672 333.536 699.821 326.049C697.12 324.59 693.067 322.119 687.661 318.637C675.656 310.905 666.923 306.807 661.462 306.341C660.313 306.242 659.167 306.22 658.025 306.274C648.116 306.739 638.474 312.916 629.101 324.805C624.35 330.832 619.358 339.607 614.125 351.13C610.185 359.807 606.843 366.026 604.1 369.787C602.072 372.566 599.794 375.057 597.265 377.26C593.987 380.115 590.288 382.487 586.167 384.374C575.973 389.043 566.619 390.323 558.105 388.213L558.101 388.212C556.478 387.81 554.886 387.285 553.325 386.637C547.641 384.276 540.418 378.742 531.657 370.034C524.351 362.771 518.55 357.991 514.255 355.694C512.346 354.673 510.375 353.861 508.342 353.259L508.342 353.259C503.075 351.699 497.393 351.545 491.294 352.797C489.661 353.133 488.063 353.57 486.501 354.11C478.431 356.899 471.305 362.42 465.123 370.673C460.386 376.996 454.146 388.58 446.403 405.423C440.379 418.527 435.516 428.296 431.815 434.731C426.777 443.491 420.519 449.572 413.042 452.976C408.054 455.246 402.524 456.325 396.452 456.212C385.696 456.012 374.068 452.051 361.568 444.331C355.635 440.666 346.376 433.994 333.791 424.316C316.892 411.321 306.08 404.229 301.354 403.042L302.572 398.193L301.354 403.042C278.087 397.198 248.772 412.069 213.407 447.655C184.301 476.944 152.142 519.294 116.93 574.706C91.713 614.39 66.2444 658.624 40.5245 707.409C27.6657 731.8 17.3344 752.21 9.5307 768.64C8.32938 771.169 5.39828 772.212 2.86908 771.011C0.339874 769.81 -0.703491 766.879 0.497803 764.349Z" clip-rule="evenodd" fill="#FFFFFF" fill-opacity="1.000000" fill-rule="evenodd"/>
	<path id="Vector 1" d="" stroke="#000000" stroke-opacity="1.000000" stroke-width="1.000000"/>
</svg>
